<svg width="275" height="33" viewBox="0 0 275 33" fill="none" xmlns="http://www.w3.org/2000/svg">
<path d="M18.9081 5.02875C19.063 5.64825 19.1404 6.42262 19.1404 7.35187C19.1404 8.2424 19.063 9.01678 18.9081 9.675C19.063 10.2945 19.1404 11.0689 19.1404 11.9981C19.1404 12.8887 19.063 13.663 18.9081 14.3212C19.063 14.9407 19.1404 15.7151 19.1404 16.6444C19.1404 17.5349 19.063 18.3093 18.9081 18.9675C19.063 19.587 19.1404 20.3614 19.1404 21.2906C19.1404 22.1812 19.063 22.9555 18.9081 23.6137C19.063 24.2332 19.1404 25.0076 19.1404 25.9369C19.1404 26.8274 19.063 27.6018 18.9081 28.26C19.063 28.8795 19.1404 29.6539 19.1404 30.5831C19.1404 31.4737 19.063 32.248 18.9081 32.9062H14.2619C14.107 32.248 14.0296 31.4737 14.0296 30.5831C14.0296 29.6539 14.107 28.8795 14.2619 28.26C14.107 27.6018 14.0296 26.8274 14.0296 25.9369C14.0296 25.0076 14.107 24.2332 14.2619 23.6137C14.107 22.9555 14.0296 22.1812 14.0296 21.2906C14.0296 20.3614 14.107 19.587 14.2619 18.9675H4.96938C5.12425 19.587 5.20169 20.3614 5.20169 21.2906C5.20169 22.1812 5.12425 22.9555 4.96938 23.6137C5.12425 24.2332 5.20169 25.0076 5.20169 25.9369C5.20169 26.8274 5.12425 27.6018 4.96938 28.26C5.12425 28.8795 5.20169 29.6539 5.20169 30.5831C5.20169 31.4737 5.12425 32.248 4.96938 32.9062H0.323125C0.16825 32.248 0.0908129 31.4737 0.0908129 30.5831C0.0908129 29.6539 0.16825 28.8795 0.323125 28.26C0.16825 27.6018 0.0908129 26.8274 0.0908129 25.9369C0.0908129 25.0076 0.16825 24.2332 0.323125 23.6137C0.16825 22.9555 0.0908129 22.1812 0.0908129 21.2906C0.0908129 20.3614 0.16825 19.587 0.323125 18.9675C0.16825 18.3093 0.0908129 17.5349 0.0908129 16.6444C0.0908129 15.7151 0.16825 14.9407 0.323125 14.3212C0.16825 13.663 0.0908129 12.8887 0.0908129 11.9981C0.0908129 11.0689 0.16825 10.2945 0.323125 9.675C0.16825 9.01678 0.0908129 8.2424 0.0908129 7.35187C0.0908129 6.42262 0.16825 5.64825 0.323125 5.02875C0.16825 4.37053 0.0908129 3.59615 0.0908129 2.70562C0.0908129 1.77637 0.16825 1.00199 0.323125 0.382496H4.96938C5.12425 1.00199 5.20169 1.77637 5.20169 2.70562C5.20169 3.59615 5.12425 4.37053 4.96938 5.02875C5.12425 5.64825 5.20169 6.42262 5.20169 7.35187C5.20169 8.2424 5.12425 9.01678 4.96938 9.675C5.12425 10.2945 5.20169 11.0689 5.20169 11.9981C5.20169 12.8887 5.12425 13.663 4.96938 14.3212H14.2619C14.107 13.663 14.0296 12.8887 14.0296 11.9981C14.0296 11.0689 14.107 10.2945 14.2619 9.675C14.107 9.01678 14.0296 8.2424 14.0296 7.35187C14.0296 6.42262 14.107 5.64825 14.2619 5.02875C14.107 4.37053 14.0296 3.59615 14.0296 2.70562C14.0296 1.77637 14.107 1.00199 14.2619 0.382496H18.9081C19.063 1.00199 19.1404 1.77637 19.1404 2.70562C19.1404 3.59615 19.063 4.37053 18.9081 5.02875ZM42.1621 28.26C42.3169 28.8795 42.3944 29.6539 42.3944 30.5831C42.3944 31.4737 42.3169 32.248 42.1621 32.9062H37.5158C37.3609 32.248 37.2835 31.4737 37.2835 30.5831C37.2835 29.6539 37.3609 28.8795 37.5158 28.26H35.1927C35.0378 27.6018 34.9604 26.8274 34.9604 25.9369C34.9604 25.0076 35.0378 24.2332 35.1927 23.6137H28.2233C28.3782 24.2332 28.4556 25.0076 28.4556 25.9369C28.4556 26.8274 28.3782 27.6018 28.2233 28.26H35.1927C35.3476 28.8795 35.425 29.6539 35.425 30.5831C35.425 31.4737 35.3476 32.248 35.1927 32.9062H25.9002C25.7453 32.248 25.6679 31.4737 25.6679 30.5831C25.6679 29.6539 25.7453 28.8795 25.9002 28.26H23.5771C23.4222 27.6018 23.3448 26.8274 23.3448 25.9369C23.3448 25.0076 23.4222 24.2332 23.5771 23.6137H25.9002C25.7453 22.9555 25.6679 22.1812 25.6679 21.2906C25.6679 20.3614 25.7453 19.587 25.9002 18.9675H35.1927C35.0378 18.3093 34.9604 17.5349 34.9604 16.6444C34.9604 15.7151 35.0378 14.9407 35.1927 14.3212H27.0618C26.9069 13.663 26.8294 12.8887 26.8294 11.9981C26.8294 11.0689 26.9069 10.2945 27.0618 9.675H37.5158C37.6707 10.2945 37.7481 11.0689 37.7481 11.9981C37.7481 12.8887 37.6707 13.663 37.5158 14.3212H39.8389C39.9938 14.9407 40.0713 15.7151 40.0713 16.6444C40.0713 17.5349 39.9938 18.3093 39.8389 18.9675C39.9938 19.587 40.0713 20.3614 40.0713 21.2906C40.0713 22.1812 39.9938 22.9555 39.8389 23.6137C39.9938 24.2332 40.0713 25.0076 40.0713 25.9369C40.0713 26.8274 39.9938 27.6018 39.8389 28.26H42.1621ZM64.4868 25.9369C64.4868 26.8274 64.4093 27.6018 64.2544 28.26H61.9313C62.0862 28.8795 62.1636 29.6539 62.1636 30.5831C62.1636 31.4737 62.0862 32.248 61.9313 32.9062H49.1541C48.9993 32.248 48.9218 31.4737 48.9218 30.5831C48.9218 29.6539 48.9993 28.8795 49.1541 28.26H59.6082C59.4533 27.6018 59.3759 26.8274 59.3759 25.9369C59.3759 25.0076 59.4533 24.2332 59.6082 23.6137H50.3157C50.1608 22.9555 50.0834 22.1812 50.0834 21.2906C50.0834 20.3614 50.1608 19.587 50.3157 18.9675H47.9926C47.8377 18.3093 47.7603 17.5349 47.7603 16.6444C47.7603 15.7151 47.8377 14.9407 47.9926 14.3212H50.3157C50.1608 13.663 50.0834 12.8887 50.0834 11.9981C50.0834 11.0689 50.1608 10.2945 50.3157 9.675H63.0929C63.2478 10.2945 63.3252 11.0689 63.3252 11.9981C63.3252 12.8887 63.2478 13.663 63.0929 14.3212H52.6388C52.7937 14.9407 52.8711 15.7151 52.8711 16.6444C52.8711 17.5349 52.7937 18.3093 52.6388 18.9675H61.9313C62.0862 19.587 62.1636 20.3614 62.1636 21.2906C62.1636 22.1812 62.0862 22.9555 61.9313 23.6137H64.2544C64.4093 24.2332 64.4868 25.0076 64.4868 25.9369ZM74.9635 11.9981C74.9635 12.8887 74.8861 13.663 74.7312 14.3212H76.4735C76.6284 14.9407 76.7059 15.7151 76.7059 16.6444C76.7059 17.5349 76.6284 18.3093 76.4735 18.9675H74.7312C74.8861 19.587 74.9635 20.3614 74.9635 21.2906C74.9635 22.1812 74.8861 22.9555 74.7312 23.6137C74.8861 24.2332 74.9635 25.0076 74.9635 25.9369C74.9635 26.8274 74.8861 27.6018 74.7312 28.26C74.8861 28.8795 74.9635 29.6539 74.9635 30.5831C74.9635 31.4737 74.8861 32.248 74.7312 32.9062H70.085C69.9301 32.248 69.8526 31.4737 69.8526 30.5831C69.8526 29.6539 69.9301 28.8795 70.085 28.26C69.9301 27.6018 69.8526 26.8274 69.8526 25.9369C69.8526 25.0076 69.9301 24.2332 70.085 23.6137C69.9301 22.9555 69.8526 22.1812 69.8526 21.2906C69.8526 20.3614 69.9301 19.587 70.085 18.9675C69.9301 18.3093 69.8526 17.5349 69.8526 16.6444C69.8526 15.7151 69.9301 14.9407 70.085 14.3212C69.9301 13.663 69.8526 12.8887 69.8526 11.9981C69.8526 11.0689 69.9301 10.2945 70.085 9.675C69.9301 9.01678 69.8526 8.2424 69.8526 7.35187C69.8526 6.42262 69.9301 5.64825 70.085 5.02875C69.9301 4.37053 69.8526 3.59615 69.8526 2.70562C69.8526 1.77637 69.9301 1.00199 70.085 0.382496H74.7312C74.8861 1.00199 74.9635 1.77637 74.9635 2.70562C74.9635 3.59615 74.8861 4.37053 74.7312 5.02875C74.8861 5.64825 74.9635 6.42262 74.9635 7.35187C74.9635 8.2424 74.8861 9.01678 74.7312 9.675C74.8861 10.2945 74.9635 11.0689 74.9635 11.9981ZM88.67 18.9675C88.8248 19.587 88.9023 20.3614 88.9023 21.2906C88.9023 22.1812 88.8248 22.9555 88.67 23.6137C88.8248 24.2332 88.9023 25.0076 88.9023 25.9369C88.9023 26.8274 88.8248 27.6018 88.67 28.26C88.8248 28.8795 88.9023 29.6539 88.9023 30.5831C88.9023 31.4737 88.8248 32.248 88.67 32.9062H84.0237C83.8688 32.248 83.7914 31.4737 83.7914 30.5831C83.7914 29.6539 83.8688 28.8795 84.0237 28.26C83.8688 27.6018 83.7914 26.8274 83.7914 25.9369C83.7914 25.0076 83.8688 24.2332 84.0237 23.6137C83.8688 22.9555 83.7914 22.1812 83.7914 21.2906C83.7914 20.3614 83.8688 19.587 84.0237 18.9675C83.8688 18.3093 83.7914 17.5349 83.7914 16.6444C83.7914 15.7151 83.8688 14.9407 84.0237 14.3212H76.4735C76.3187 13.663 76.2412 12.8887 76.2412 11.9981C76.2412 11.0689 76.3187 10.2945 76.4735 9.675H85.766C85.9209 10.2945 85.9984 11.0689 85.9984 11.9981C85.9984 12.8887 85.9209 13.663 85.766 14.3212H88.67C88.8248 14.9407 88.9023 15.7151 88.9023 16.6444C88.9023 17.5349 88.8248 18.3093 88.67 18.9675ZM135.41 16.6444C135.41 17.5349 135.333 18.3093 135.178 18.9675H132.274C132.429 19.587 132.506 20.3614 132.506 21.2906C132.506 22.1812 132.429 22.9555 132.274 23.6137H134.016C134.171 24.2332 134.249 25.0076 134.249 25.9369C134.249 26.8274 134.171 27.6018 134.016 28.26H135.178C135.333 28.8795 135.41 29.6539 135.41 30.5831C135.41 31.4737 135.333 32.248 135.178 32.9062H130.532C130.377 32.248 130.299 31.4737 130.299 30.5831C130.299 29.6539 130.377 28.8795 130.532 28.26C130.377 27.6018 130.299 26.8274 130.299 25.9369C130.299 25.0076 130.377 24.2332 130.532 23.6137H128.789C128.944 24.2332 129.022 25.0076 129.022 25.9369C129.022 26.8274 128.944 27.6018 128.789 28.26H127.047C127.202 28.8795 127.279 29.6539 127.279 30.5831C127.279 31.4737 127.202 32.248 127.047 32.9062H118.916C118.761 32.248 118.684 31.4737 118.684 30.5831C118.684 29.6539 118.761 28.8795 118.916 28.26H116.593C116.438 27.6018 116.361 26.8274 116.361 25.9369C116.361 25.0076 116.438 24.2332 116.593 23.6137C116.438 22.9555 116.361 22.1812 116.361 21.2906C116.361 20.3614 116.438 19.587 116.593 18.9675H118.916C118.761 18.3093 118.684 17.5349 118.684 16.6444C118.684 15.7151 118.761 14.9407 118.916 14.3212H121.239C121.084 13.663 121.007 12.8887 121.007 11.9981C121.007 11.0689 121.084 10.2945 121.239 9.675H118.916C118.761 9.01678 118.684 8.2424 118.684 7.35187C118.684 6.42262 118.761 5.64825 118.916 5.02875H121.239C121.084 4.37053 121.007 3.59615 121.007 2.70562C121.007 1.77637 121.084 1.00199 121.239 0.382496H128.208C128.363 1.00199 128.441 1.77637 128.441 2.70562C128.441 3.59615 128.363 4.37053 128.208 5.02875H130.532C130.686 5.64825 130.764 6.42262 130.764 7.35187C130.764 8.2424 130.686 9.01678 130.532 9.675H127.047C126.892 9.01678 126.815 8.2424 126.815 7.35187C126.815 6.42262 126.892 5.64825 127.047 5.02875H122.401C122.556 5.64825 122.633 6.42262 122.633 7.35187C122.633 8.2424 122.556 9.01678 122.401 9.675H127.047C127.202 10.2945 127.279 11.0689 127.279 11.9981C127.279 12.8887 127.202 13.663 127.047 14.3212H128.789C128.944 14.9407 129.022 15.7151 129.022 16.6444C129.022 17.5349 128.944 18.3093 128.789 18.9675H131.693C131.538 18.3093 131.461 17.5349 131.461 16.6444C131.461 15.7151 131.538 14.9407 131.693 14.3212C131.538 13.663 131.461 12.8887 131.461 11.9981C131.461 11.0689 131.538 10.2945 131.693 9.675H135.178C135.333 10.2945 135.41 11.0689 135.41 11.9981C135.41 12.8887 135.333 13.663 135.178 14.3212C135.333 14.9407 135.41 15.7151 135.41 16.6444ZM127.047 23.6137C126.892 22.9555 126.815 22.1812 126.815 21.2906C126.815 20.3614 126.892 19.587 127.047 18.9675H125.305C125.15 18.3093 125.072 17.5349 125.072 16.6444C125.072 15.7151 125.15 14.9407 125.305 14.3212H123.562C123.717 14.9407 123.795 15.7151 123.795 16.6444C123.795 17.5349 123.717 18.3093 123.562 18.9675H121.239C121.394 19.587 121.471 20.3614 121.471 21.2906C121.471 22.1812 121.394 22.9555 121.239 23.6137C121.394 24.2332 121.471 25.0076 121.471 25.9369C121.471 26.8274 121.394 27.6018 121.239 28.26H125.305C125.15 27.6018 125.072 26.8274 125.072 25.9369C125.072 25.0076 125.15 24.2332 125.305 23.6137H127.047ZM181.686 18.9675C181.841 19.587 181.918 20.3614 181.918 21.2906C181.918 22.1812 181.841 22.9555 181.686 23.6137C181.841 24.2332 181.918 25.0076 181.918 25.9369C181.918 26.8274 181.841 27.6018 181.686 28.26H179.363C179.517 28.8795 179.595 29.6539 179.595 30.5831C179.595 31.4737 179.517 32.248 179.363 32.9062H165.424C165.269 32.248 165.192 31.4737 165.192 30.5831C165.192 29.6539 165.269 28.8795 165.424 28.26H163.101C162.946 27.6018 162.868 26.8274 162.868 25.9369C162.868 25.0076 162.946 24.2332 163.101 23.6137H167.747C167.902 24.2332 167.979 25.0076 167.979 25.9369C167.979 26.8274 167.902 27.6018 167.747 28.26H177.039C176.885 27.6018 176.807 26.8274 176.807 25.9369C176.807 25.0076 176.885 24.2332 177.039 23.6137C176.885 22.9555 176.807 22.1812 176.807 21.2906C176.807 20.3614 176.885 19.587 177.039 18.9675H165.424C165.269 18.3093 165.192 17.5349 165.192 16.6444C165.192 15.7151 165.269 14.9407 165.424 14.3212H163.101C162.946 13.663 162.868 12.8887 162.868 11.9981C162.868 11.0689 162.946 10.2945 163.101 9.675C162.946 9.01678 162.868 8.2424 162.868 7.35187C162.868 6.42262 162.946 5.64825 163.101 5.02875H165.424C165.269 4.37053 165.192 3.59615 165.192 2.70562C165.192 1.77637 165.269 1.00199 165.424 0.382496H179.363C179.517 1.00199 179.595 1.77637 179.595 2.70562C179.595 3.59615 179.517 4.37053 179.363 5.02875H181.686C181.841 5.64825 181.918 6.42262 181.918 7.35187C181.918 8.2424 181.841 9.01678 181.686 9.675H177.039C176.885 9.01678 176.807 8.2424 176.807 7.35187C176.807 6.42262 176.885 5.64825 177.039 5.02875H167.747C167.902 5.64825 167.979 6.42262 167.979 7.35187C167.979 8.2424 167.902 9.01678 167.747 9.675C167.902 10.2945 167.979 11.0689 167.979 11.9981C167.979 12.8887 167.902 13.663 167.747 14.3212H179.363C179.517 14.9407 179.595 15.7151 179.595 16.6444C179.595 17.5349 179.517 18.3093 179.363 18.9675H181.686ZM202.617 28.26C202.771 28.8795 202.849 29.6539 202.849 30.5831C202.849 31.4737 202.771 32.248 202.617 32.9062H188.678C188.523 32.248 188.445 31.4737 188.445 30.5831C188.445 29.6539 188.523 28.8795 188.678 28.26H193.324C193.169 27.6018 193.092 26.8274 193.092 25.9369C193.092 25.0076 193.169 24.2332 193.324 23.6137C193.169 22.9555 193.092 22.1812 193.092 21.2906C193.092 20.3614 193.169 19.587 193.324 18.9675C193.169 18.3093 193.092 17.5349 193.092 16.6444C193.092 15.7151 193.169 14.9407 193.324 14.3212C193.169 13.663 193.092 12.8887 193.092 11.9981C193.092 11.0689 193.169 10.2945 193.324 9.675C193.169 9.01678 193.092 8.2424 193.092 7.35187C193.092 6.42262 193.169 5.64825 193.324 5.02875H189.839C189.684 4.37053 189.607 3.59615 189.607 2.70562C189.607 1.77637 189.684 1.00199 189.839 0.382496H197.97C198.125 1.00199 198.203 1.77637 198.203 2.70562C198.203 3.59615 198.125 4.37053 197.97 5.02875C198.125 5.64825 198.203 6.42262 198.203 7.35187C198.203 8.2424 198.125 9.01678 197.97 9.675C198.125 10.2945 198.203 11.0689 198.203 11.9981C198.203 12.8887 198.125 13.663 197.97 14.3212C198.125 14.9407 198.203 15.7151 198.203 16.6444C198.203 17.5349 198.125 18.3093 197.97 18.9675C198.125 19.587 198.203 20.3614 198.203 21.2906C198.203 22.1812 198.125 22.9555 197.97 23.6137C198.125 24.2332 198.203 25.0076 198.203 25.9369C198.203 26.8274 198.125 27.6018 197.97 28.26H202.617ZM228.194 28.26C228.348 28.8795 228.426 29.6539 228.426 30.5831C228.426 31.4737 228.348 32.248 228.194 32.9062H223.547C223.392 32.248 223.315 31.4737 223.315 30.5831C223.315 29.6539 223.392 28.8795 223.547 28.26H221.224C221.069 27.6018 220.992 26.8274 220.992 25.9369C220.992 25.0076 221.069 24.2332 221.224 23.6137H214.255C214.41 24.2332 214.487 25.0076 214.487 25.9369C214.487 26.8274 214.41 27.6018 214.255 28.26H221.224C221.379 28.8795 221.457 29.6539 221.457 30.5831C221.457 31.4737 221.379 32.248 221.224 32.9062H211.932C211.777 32.248 211.699 31.4737 211.699 30.5831C211.699 29.6539 211.777 28.8795 211.932 28.26H209.609C209.454 27.6018 209.376 26.8274 209.376 25.9369C209.376 25.0076 209.454 24.2332 209.609 23.6137H211.932C211.777 22.9555 211.699 22.1812 211.699 21.2906C211.699 20.3614 211.777 19.587 211.932 18.9675H221.224C221.069 18.3093 220.992 17.5349 220.992 16.6444C220.992 15.7151 221.069 14.9407 221.224 14.3212H213.093C212.938 13.663 212.861 12.8887 212.861 11.9981C212.861 11.0689 212.938 10.2945 213.093 9.675H223.547C223.702 10.2945 223.78 11.0689 223.78 11.9981C223.78 12.8887 223.702 13.663 223.547 14.3212H225.87C226.025 14.9407 226.103 15.7151 226.103 16.6444C226.103 17.5349 226.025 18.3093 225.87 18.9675C226.025 19.587 226.103 20.3614 226.103 21.2906C226.103 22.1812 226.025 22.9555 225.87 23.6137C226.025 24.2332 226.103 25.0076 226.103 25.9369C226.103 26.8274 226.025 27.6018 225.87 28.26H228.194ZM250.518 25.9369C250.518 26.8274 250.441 27.6018 250.286 28.26H247.963C248.118 28.8795 248.195 29.6539 248.195 30.5831C248.195 31.4737 248.118 32.248 247.963 32.9062H235.186C235.031 32.248 234.953 31.4737 234.953 30.5831C234.953 29.6539 235.031 28.8795 235.186 28.26H245.64C245.485 27.6018 245.407 26.8274 245.407 25.9369C245.407 25.0076 245.485 24.2332 245.64 23.6137H236.347C236.192 22.9555 236.115 22.1812 236.115 21.2906C236.115 20.3614 236.192 19.587 236.347 18.9675H234.024C233.869 18.3093 233.792 17.5349 233.792 16.6444C233.792 15.7151 233.869 14.9407 234.024 14.3212H236.347C236.192 13.663 236.115 12.8887 236.115 11.9981C236.115 11.0689 236.192 10.2945 236.347 9.675H249.124C249.279 10.2945 249.357 11.0689 249.357 11.9981C249.357 12.8887 249.279 13.663 249.124 14.3212H238.67C238.825 14.9407 238.903 15.7151 238.903 16.6444C238.903 17.5349 238.825 18.3093 238.67 18.9675H247.963C248.118 19.587 248.195 20.3614 248.195 21.2906C248.195 22.1812 248.118 22.9555 247.963 23.6137H250.286C250.441 24.2332 250.518 25.0076 250.518 25.9369ZM260.995 11.9981C260.995 12.8887 260.918 13.663 260.763 14.3212H262.505C262.66 14.9407 262.737 15.7151 262.737 16.6444C262.737 17.5349 262.66 18.3093 262.505 18.9675H260.763C260.918 19.587 260.995 20.3614 260.995 21.2906C260.995 22.1812 260.918 22.9555 260.763 23.6137C260.918 24.2332 260.995 25.0076 260.995 25.9369C260.995 26.8274 260.918 27.6018 260.763 28.26C260.918 28.8795 260.995 29.6539 260.995 30.5831C260.995 31.4737 260.918 32.248 260.763 32.9062H256.116C255.962 32.248 255.884 31.4737 255.884 30.5831C255.884 29.6539 255.962 28.8795 256.116 28.26C255.962 27.6018 255.884 26.8274 255.884 25.9369C255.884 25.0076 255.962 24.2332 256.116 23.6137C255.962 22.9555 255.884 22.1812 255.884 21.2906C255.884 20.3614 255.962 19.587 256.116 18.9675C255.962 18.3093 255.884 17.5349 255.884 16.6444C255.884 15.7151 255.962 14.9407 256.116 14.3212C255.962 13.663 255.884 12.8887 255.884 11.9981C255.884 11.0689 255.962 10.2945 256.116 9.675C255.962 9.01678 255.884 8.2424 255.884 7.35187C255.884 6.42262 255.962 5.64825 256.116 5.02875C255.962 4.37053 255.884 3.59615 255.884 2.70562C255.884 1.77637 255.962 1.00199 256.116 0.382496H260.763C260.918 1.00199 260.995 1.77637 260.995 2.70562C260.995 3.59615 260.918 4.37053 260.763 5.02875C260.918 5.64825 260.995 6.42262 260.995 7.35187C260.995 8.2424 260.918 9.01678 260.763 9.675C260.918 10.2945 260.995 11.0689 260.995 11.9981ZM274.701 18.9675C274.856 19.587 274.934 20.3614 274.934 21.2906C274.934 22.1812 274.856 22.9555 274.701 23.6137C274.856 24.2332 274.934 25.0076 274.934 25.9369C274.934 26.8274 274.856 27.6018 274.701 28.26C274.856 28.8795 274.934 29.6539 274.934 30.5831C274.934 31.4737 274.856 32.248 274.701 32.9062H270.055C269.9 32.248 269.823 31.4737 269.823 30.5831C269.823 29.6539 269.9 28.8795 270.055 28.26C269.9 27.6018 269.823 26.8274 269.823 25.9369C269.823 25.0076 269.9 24.2332 270.055 23.6137C269.9 22.9555 269.823 22.1812 269.823 21.2906C269.823 20.3614 269.9 19.587 270.055 18.9675C269.9 18.3093 269.823 17.5349 269.823 16.6444C269.823 15.7151 269.9 14.9407 270.055 14.3212H262.505C262.35 13.663 262.273 12.8887 262.273 11.9981C262.273 11.0689 262.35 10.2945 262.505 9.675H271.798C271.952 10.2945 272.03 11.0689 272.03 11.9981C272.03 12.8887 271.952 13.663 271.798 14.3212H274.701C274.856 14.9407 274.934 15.7151 274.934 16.6444C274.934 17.5349 274.856 18.3093 274.701 18.9675Z" fill="white"/>
</svg>
