<svg width="124" height="53" viewBox="0 0 124 53" fill="none" xmlns="http://www.w3.org/2000/svg">
<g clip-path="url(#clip0_131_2)">
<g clip-path="url(#clip1_131_2)">
<path d="M15.5 0H0V9.5L20.5 50.5H28.5L39 33L49.5 50.5H57L78 9.5V0H61.5L51 20L39 0L25.5 20L15.5 0Z" fill="white"/>
</g>
<path d="M100.638 50.8596C97.1338 50.8596 93.6298 50.4276 90.1258 49.5636C86.6698 48.6996 83.6458 47.4756 81.0538 45.8916L86.2378 35.1636C88.2538 36.5076 90.4858 37.5396 92.9338 38.2596C95.4298 38.9796 97.8538 39.3396 100.206 39.3396C102.654 39.3396 104.598 38.8836 106.038 37.9716C107.478 37.0596 108.198 35.7636 108.198 34.0836C108.198 32.5956 107.598 31.4196 106.398 30.5556C105.198 29.6436 103.23 29.1876 100.494 29.1876H94.5178V20.1876L108.054 5.57156L109.422 10.4676H83.6458V-0.548441H120.078V8.37956L106.542 22.9956L99.5578 19.0356H103.446C109.734 19.0356 114.486 20.4516 117.702 23.2836C120.966 26.0676 122.598 29.6676 122.598 34.0836C122.598 36.9636 121.806 39.6756 120.222 42.2196C118.686 44.7636 116.31 46.8516 113.094 48.4836C109.878 50.0676 105.726 50.8596 100.638 50.8596Z" fill="white"/>
</g>
<defs>
<clipPath id="clip0_131_2">
<rect width="124" height="53" fill="white"/>
</clipPath>
<clipPath id="clip1_131_2">
<rect width="78.0482" height="76.2369" fill="white" transform="translate(0 -25.5215)"/>
</clipPath>
</defs>
</svg>
